<svg xmlns:dc="http://purl.org/dc/elements/1.1/" xmlns:cc="http://creativecommons.org/ns#" xmlns:rdf="http://www.w3.org/1999/02/22-rdf-syntax-ns#" xmlns:svg="http://www.w3.org/2000/svg" xmlns="http://www.w3.org/2000/svg" xmlns:xlink="http://www.w3.org/1999/xlink" viewBox="0 0 1053.33 388" width="100%" id="svg4788" version="1.1">
  <defs id="defs4792">
    <linearGradient y2="145.06" x2="297.71" y1="145.06" x1="48.52" gradientUnits="userSpaceOnUse" id="linearGradient5018"> <stop id="stop5008" offset="0" stop-color="#F65C51"/> <stop id="stop5010" offset="0.25" stop-color="#D9615E"/> <stop id="stop5012" offset="0.46" stop-color="#906F7F"/> <stop id="stop5014" offset="0.71" stop-color="#1C84B2"/> <stop id="stop5016" offset="1" stop-color="#0988BB"/> </linearGradient>
    <linearGradient y2="145.06" x2="297.71" y1="145.06" x1="48.52" gradientUnits="userSpaceOnUse" id="linearGradient5000"> <stop id="stop4990" offset="0" stop-color="#F65C51"/> <stop id="stop4992" offset="0.19" stop-color="#D9615E"/> <stop id="stop4994" offset="0.44" stop-color="#906F7F"/> <stop id="stop4996" offset="0.7" stop-color="#1C84B2"/> <stop id="stop4998" offset="1" stop-color="#0988BB"/> </linearGradient>
    <filter id="filter4862" color-interpolation-filters="sRGB"> <feFlood id="feFlood4852" result="flood" flood-color="rgb(0,0,0)" flood-opacity="0.5"/> <feComposite id="feComposite4854" result="composite1" operator="out" in2="SourceGraphic" in="flood"/> <feGaussianBlur id="feGaussianBlur4856" result="blur" stdDeviation="3" in="composite1"/> <feOffset id="feOffset4858" result="offset" dy="6" dx="6"/> <feComposite id="feComposite4860" result="fbSourceGraphic" operator="atop" in2="SourceGraphic" in="offset"/> <feColorMatrix id="feColorMatrix4864" values="0" in="fbSourceGraphic" result="fbSourceGraphicAlpha"/> <feFlood in="fbSourceGraphic" result="flood" flood-color="rgb(0,0,0)" flood-opacity="0.5" id="feFlood4866"/> <feComposite result="composite1" operator="out" in="flood" id="feComposite4868" in2="fbSourceGraphic"/> <feGaussianBlur result="blur" stdDeviation="3" in="composite1" id="feGaussianBlur4870"/> <feOffset result="offset" dy="6" dx="6" id="feOffset4872"/> <feComposite result="composite2" operator="atop" in="offset" id="feComposite4874" in2="fbSourceGraphic"/> </filter>
    <linearGradient y2="133.69" x2="207.82" y1="232.68" x1="290.88" gradientUnits="userSpaceOnUse" id="linearGradient5022" xlink:href="#SVGID_1_"/> 
  </defs>
  <path id="beaker" d="m197.39 75.33c-3.15 0-7.21 1.43-11.26 3.63-4.05 2.2-8.06 5.19-10.97 8.4-3.78 4.18-6.11 8.21-7.45 14.5C166.38 108.15 166 116.7 166 130.12v23.1l34.71 89.74c9.53 24.65 18.2 47.18 24.48 63.63 3.14 8.23 5.69 14.93 7.45 19.62 0.88 2.34 1.56 4.18 2.03 5.45 0.21 0.57 0.36 0.99 0.47 1.32-0.26 0.03-0.51 0.05-0.92 0.08-1.13 0.08-2.81 0.15-4.98 0.22-4.34 0.14-10.64 0.26-18.46 0.37C195.13 333.87 173.43 334 149.18 334H63.18l0.46-2.2c0 0.01 0.08-0.29 0.22-0.68 0.14-0.4 0.33-0.94 0.58-1.62 0.5-1.37 1.21-3.29 2.12-5.7 1.81-4.82 4.39-11.59 7.55-19.83 19.79-51.47 37.56-96.94 58.56-150.91v-23.77c0-13.98-0.38-22.72-1.82-29.07-1.44-6.35-3.98-10.29-8.12-14.44-6.07-6.07-14.57-10.37-20.95-10.41-3.4-0.02-6.67 1.72-9.09 4.33-2.42 2.62-4.02 6.13-4.02 9.77 0 1.38-0.03 2.42 0.12 3.34 0.15 0.92 0.54 1.72 1.28 2.38 1.47 1.3 4.1 2.18 9.53 4.22 4.02 1.51 6.12 3.07 7.42 7.2 1.3 4.13 1.65 10.88 1.65 22.36l0 20.15-19.41 46.26c-18.89 45.02-32.43 77.91-41.46 100.79-9.03 22.88-13.55 35.67-14.42 40.83-0.61 3.62 0.18 7.86 1.8 11.62 1.62 3.76 4.06 7.04 6.96 8.63 0.96 0.53 2.55 0.81 5.88 1.07 3.33 0.25 8.38 0.43 16.13 0.55 15.49 0.24 41.73 0.23 86.28 0.11l104.73-0.29 4.76-5.2c2.03-2.22 3.24-3.75 3.93-5.59 0.68-1.84 0.81-3.89 0.81-7.13 0-4.18-0.73-8.43-3.59-16.94-2.86-8.51-7.86-21.31-16.43-42.73-11.76-29.36-35.73-87.38-47.48-114.93L190 149.36v-20.56-20.45l3.87-4.41c2.19-2.5 6.33-5.22 9.37-6.18 2.68-0.85 4.23-1.37 5.2-2.56 0.96-1.19 1.11-2.79 1.31-5.5 0.18-2.44 0.14-4.13-0.43-5.66-0.56-1.53-1.62-2.82-3.33-4.53-2.78-2.78-5.57-4.17-8.59-4.17z" style="fill:#666;filter:url(#filter4862)"/>
  <g id="labs" style="fill:#646665;filter:url(#filter4862)">
    <path id="l" d="m295.33 103.33v9.17 9.04l13.52 3c3.57 0.79 7.03 1.63 9.74 2.35 1.35 0.36 2.52 0.69 3.4 0.96 0.89 0.27 1.53 0.52 1.68 0.6-0.05-0.03 0.11 0.09 0.27 0.63 0.16 0.54 0.31 1.42 0.45 2.73 0.27 2.63 0.48 6.98 0.65 13.99 0.33 14.02 0.47 38.69 0.61 81.68 0.09 27.09 0.05 51.91-0.09 70.06-0.07 9.08-0.16 16.49-0.27 21.69-0.06 2.6-0.11 4.64-0.18 6.06-0.03 0.71-0.07 1.26-0.1 1.64-0.02 0.18-0.03 0.32-0.04 0.41 0-0.02-0.05 0.04-0.23 0.15-0.22 0.13-0.54 0.28-0.94 0.46-0.8 0.34-1.92 0.75-3.27 1.17-2.69 0.86-6.28 1.82-10.09 2.67l-14.43 3.23-0.41 11.42-0.41 11.6 96.41-0.34 96.35-0.34 0.89-17.3c0.47-9.17 1.29-27.35 1.82-40.41l0.99-24.46-9.21 0.44-8.94 0.42-8.94 24.93c-2.42 6.74-4.79 13.14-6.66 18.03-0.94 2.44-1.75 4.51-2.38 6.04-0.63 1.53-1.12 2.6-1.25 2.8-0.32 0.51-0.55 0.79-1.46 1.09-0.91 0.3-2.49 0.55-5.2 0.71C442.2 329.96 432.24 330 413.59 330c-14.56 0-24.59-0.11-31.11-0.36-3.26-0.13-5.65-0.29-7.27-0.49-0.81-0.1-1.43-0.21-1.85-0.32-0.37-0.1-0.52-0.2-0.54-0.21-0.02-0.09-0.05-0.22-0.07-0.41-0.06-0.41-0.12-1.01-0.17-1.78-0.12-1.54-0.22-3.76-0.33-6.55-0.2-5.58-0.38-13.45-0.52-22.84-0.28-18.78-0.45-43.65-0.48-68.48-0.03-24.84 0.07-49.65 0.31-68.33 0.12-9.34 0.28-17.15 0.46-22.65 0.09-2.75 0.2-4.93 0.31-6.43 0.06-0.75 0.12-1.33 0.17-1.71 0.02-0.13 0.04-0.21 0.05-0.28 0.08-0.03 0.11-0.05 0.28-0.11 0.27-0.1 0.65-0.22 1.1-0.36 0.91-0.28 2.15-0.63 3.63-1.04 2.95-0.8 6.84-1.8 10.96-2.79l15.46-3.73 0.42-8.8 0.43-8.99h-54.76z" color="#000000"/>
    <path id="a" d="m577.41 169.1c-6.05 0.07-11.91 0.54-17.18 1.45-7.21 1.24-16 3.48-23.8 5.89-7.81 2.42-14.6 4.99-17.96 7.06-2.19 1.35-3.48 2.17-4.06 3.62-0.58 1.45-0.36 3.21 0.02 6.43 0.71 5.96 3.97 13 7.91 18.61 1.97 2.8 4.1 5.24 6.2 6.99 2.1 1.75 4.17 2.86 6.1 2.81 0.47-0.01 0.68-0.19 1.08-0.41 0.39-0.23 0.87-0.54 1.44-0.94 1.14-0.8 2.64-1.94 4.4-3.34 3.52-2.8 8.09-6.65 12.87-10.87 10.5-9.29 16.26-14.23 20.3-16.64 4.04-2.41 6.27-2.37 10.3-1.76 9.59 1.44 16.19 5.38 20.4 12.49 4.21 7.11 6 17.48 5.6 31.72l-0.37 13.18-19.4 1.54c-36.17 2.86-59.35 10.66-73.55 24.93-14.83 14.91-18.36 34.64-12.97 51.52 5.39 16.88 19.72 30.94 40.46 34.54 0.03 0.01 0.08 0 0.12 0.01 9.5 1.62 28.09 0.63 38.37-2.04 8.13-2.11 17.65-6.26 26.16-11.4l4.38-2.64 4.7 5.2c9.67 10.7 21.46 14.08 36.02 10.35 9.31-2.38 18.59-7.17 24.5-12.66 2.97-2.76 3.88-5.01 3.88-9.6v-6.35l-14.32-0.4-13.02-0.36-0.1-53.35c-0.05-29.28-0.23-45.42-1.29-55.82-1.06-10.4-3.06-15.11-6.65-21.23-4.09-6.98-13.47-15.71-20.96-19.53-11.44-5.84-31.42-9.2-49.58-8.99zm33.26 97.59 0.35 26.43 0.36 26.81-3.94 3.68c-2.19 2.05-7.73 4.91-12.58 6.41-4.69 1.45-12 2.61-16 2.56-10.39-0.12-18.21-2.71-23.24-7.39-5.03-4.68-7.35-11.47-6.64-20.3 0.75-9.35 3-14.38 9.81-21.92 9.15-10.13 23.61-15.64 42.49-16.07z" color="#000000"/>
    <path id="b" d="m727.23 67.33c-9.1 0-15.94 1.15-32.5 5.44-16.33 4.23-23.67 5.87-27.18 7.78-1.76 0.95-2.6 2.12-2.85 3.55-0.25 1.43-0.04 3.04-0.04 5.3v8.5l14.98 0.39 13.69 0.36L694 219.34l0.67 121.74 11.7 5.83c10.6 5.28 28.24 10.33 40.23 11.53 14.18 1.42 32.65-0.34 48.17-4.56 32.71-8.9 56.4-32.71 66.13-66.43 2.65-9.18 3.06-13.6 2.95-31.45-0.15-23.33-2.45-34.85-9.95-49.7-11.18-22.15-37.45-36.72-65.89-36.65-13.69 0.03-25.62 2.88-38.3 9.14-2.56 1.27-5.01 2.42-6.87 3.25-0.93 0.42-1.72 0.75-2.29 0.98-0.15 0.06-0.25 0.09-0.37 0.14-0.01-0.13-0.03-0.21-0.04-0.39-0.06-0.76-0.12-1.9-0.18-3.37-0.12-2.94-0.22-7.19-0.31-12.45C739.44 156.44 739.33 141.95 739.33 126V67.33Zm45.84 130.88c0.74 0.01 1.45 0.03 2.13 0.06 11.4 0.62 20.38 3.84 27.32 9.88 6.95 6.04 11.9 14.95 15.1 27.04 2.83 10.71 2.86 37.97 0 50.99-5.76 26.2-21.18 42.94-44.55 48.45-3.87 0.91-10.58 1.55-16.94 1.78-6.36 0.22-12.48 0.01-14.95-0.64-0.18-0.05-0.23-0.07-0.36-0.24-0.13-0.17-0.3-0.54-0.45-1.21-0.3-1.33-0.53-3.81-0.68-8.17-0.31-8.72-0.35-25-0.35-55.42 0-26.75 0.08-43.08 0.35-52.87 0.13-4.89 0.32-8.15 0.55-10.24 0.12-1.04 0.25-1.79 0.39-2.28 0.14-0.49 0.3-0.7 0.29-0.69 0.89-0.74 2.85-1.63 5.41-2.44 2.56-0.81 5.71-1.57 9.09-2.21 5.9-1.11 12.48-1.83 17.65-1.8z" color="#000000"/>
    <path id="s" d="m953.82 169.57c-5.95-0.07-11.58 0.09-16.34 0.54-25.19 2.39-41.4 9.82-50.6 23.4-14.22 20.97-10.53 45.81 9.47 64.13 8.77 8.04 16.73 12.48 50.25 28.07 11.64 5.41 19.48 10.66 23.88 16.07 4.4 5.41 5.44 10.93 3.53 17.3-2.35 7.84-6.11 12.36-12.83 15.47-2.7 1.25-4.69 1.92-8.54 2.3-3.85 0.38-9.53 0.45-19.42 0.44-17.46-0.02-22.72-0.56-24.79-1.93-0.78-0.52-2.08-2.3-3.59-5.34-1.51-3.04-3.3-7.34-5.4-12.98l-6.37-17.04-8.77-0.42-9.04-0.43 0.37 25.72 0.37 25.5 6.47 1.87c3.38 0.98 11.46 2.61 18.08 3.67 8.44 1.35 23.34 1.84 37.54 1.63 14.2-0.22 27.58-1.12 33.18-2.72 19.76-5.65 34.62-17.2 39.87-31.22 5.62-15.02 3.08-34.99-6.19-48.96-7.46-11.24-20.51-19.45-52.17-33.02-13.05-5.59-21.47-10.08-26.69-14.67-5.22-4.59-7.29-9.23-7.79-15.46-0.63-7.83 2.4-13.49 10.09-18.72 2.21-1.5 3.37-2.19 6.44-2.53 3.07-0.34 8.02-0.26 17.41-0.04 6.71 0.16 11.74 0.41 15.21 0.75 1.74 0.17 3.09 0.37 4.04 0.59 0.96 0.22 1.53 0.51 1.63 0.61 0.05 0.05 0.51 0.74 1.02 1.71 0.5 0.98 1.13 2.3 1.83 3.86 1.4 3.13 3.09 7.22 4.74 11.51l6.18 16.07h8.44 8.64l0.37-24.35 0.37-24.15-3.67-1.4c-5.84-2.22-16.93-3.97-29-4.98-6.03-0.5-12.3-0.82-18.25-0.89z" color="#000000"/>
  </g>
  <g transform="matrix(0.64072474,0,0,0.64072474,416.54591,8.7377642)" id="g4965"> 
    <path id="r" d="m83.8 79.6c0-17.6-2.1-21.3-2.1-24.8 0-4.2 15.3-5.7 19.7-5.7 5.7 0 6 7.1 7.1 11.4 3.7-6.6 8.9-13.4 19.2-13.4 8.6 0 10 6 10 9.5 0 3.4-2 14.8-5.4 14.8-2.5 0-4.8-1.4-8.3-1.4-7.2 0-12 5.3-14.1 8.8v56.5c0 3.7-3.2 5.7-10.6 5.7h-4.9c-7.4 0-10.6-2-10.6-5.7z" id="path4946" fill="#404040"/>
    <path id="w" d="m145.2 55.4c-0.3-1.1-0.3-2-0.3-2.6 0-4.8 14.6-4.2 14.6-4.2 4.7-0.2 9.5 0.9 10.3 3.4L183.7 106.2 197 52c0.5-2.5 4-3.7 9.7-3.7h4.2c4.9 0 9.2 1.2 9.7 3.7l13 54.2 14.3-54.2c0.7-2.5 4-3.7 9.7-3.7h0.7c7.5 0 10.9 1.7 10.9 4.6 0 0.7-0.2 1.6-0.3 2.6l-20.8 81.8c-0.7 2.5-4.8 3.7-9.7 3.7h-8.6c-5.7 0-8.9-1.2-9.7-3.7l-12.8-49.5-12 49.5c-0.5 2.5-4.8 3.7-9.7 3.7H177c-5.8 0-8.9-1.2-9.7-3.7z" id="path4948" fill="#404040"/> 
    <g id="ring"> 
      <linearGradient id="SVGID_1_" gradientUnits="userSpaceOnUse" x1="48.52" y1="145.06" x2="297.71" y2="145.06">
        <stop offset="0" id="stop4950" stop-color="#F65C51"/>
        <stop offset="0.15" id="stop4952" stop-color="#D9615E"/>
        <stop offset="0.46" id="stop4954" stop-color="#906F7F"/>
        <stop offset="0.93" id="stop4956" stop-color="#1C84B2"/>
        <stop offset="1" id="stop4958" stop-color="#0988BB"/>
      </linearGradient>
      <path d="M297.5 118.6C296 107.1 281.8 98.3 273 97.1c3.2 2.4 6.6 4.6 9.5 7.3 4.9 4.7 7.1 10.4 5.3 17.2-1.6 6.6-5.7 11.6-10.5 16.1-11.1 10.5-24.4 17.4-38.4 23.1-25.2 10.3-51.5 16-78.6 18.5-17.8 1.6-35.5 1.4-53.1-1.8C97.2 175.7 87.5 173 79.1 167 70.6 160.9 67.8 153.5 70.6 144.8L67 131.5 66.9 131.4c-3.8 2.9-11.1 8.9-15.5 17.4-5.5 10.4-3.4 20.3 5.8 27.8 8.3 6.8 18.2 10.1 28.6 12.4 21.9 4.8 44 4.8 66.2 2.9 24-2.1 47.4-6.7 70.2-14.2 19-6.2 37.2-13.7 53.5-25.3 6.9-4.9 13.1-10.4 17.6-17.6 3.2-5 5-10.3 4.2-16.2z" id="path4961" fill="url(#SVGID_1_)"/>
    </g>
  </g>
  <path id="potion" d="m75.78 324.4 145.8-0.8-32.05-84.39c-38.8 32.41-44.06-26.5-80.37 0.27z" fill="url(#linearGradient5022)"/>
  <path d="m75.78 324.4 145.8-0.8-32.05-84.39c-28.57-28.38-43.49 26.34-80.37 0.27z" id="potion-right" fill="url(#linearGradient5022)"/>
  <ellipse ry="13.66" rx="12.88" cy="218.54" cx="158.37" id="path5024-6" style="fill:none;stroke-opacity:1;stroke-width:2.53;stroke:#ae88aa"/>
  <ellipse ry="11.27" rx="10.63" cy="182.81" cx="141.39" id="path5024-7" style="fill:none;stroke-opacity:1;stroke-width:2.09;stroke:#ae88aa"/>
  <ellipse ry="9.47" rx="8.94" cy="144.45" cx="147.92" id="path5024-5" style="fill:none;stroke-opacity:1;stroke-width:1.76;stroke:#ae88aa"/>
  <ellipse ry="13.66" rx="12.88" cy="252.9" cx="127.03" id="path5024" style="fill:none;stroke-opacity:1;stroke-width:2.53;stroke:#aecfec"/>
  <ellipse ry="11.99" rx="11.31" cy="284.23" cx="166.19" id="path5024-3" style="fill:none;stroke-opacity:1;stroke-width:2.22;stroke:#aecfec"/>
  <ellipse ry="9.47" rx="8.94" cy="292.71" cx="131.12" id="path5024-5-3" style="fill:none;stroke-opacity:1;stroke-width:1.76;stroke:#aecfec"/>
</svg>
